<?xml version="1.0" encoding="iso-8859-1"?>
<!-- Uploaded to: SVG Repo, www.svgrepo.com, Generator: SVG Repo Mixer Tools -->
<svg version="1.1" id="Layer_1" xmlns="http://www.w3.org/2000/svg" xmlns:xlink="http://www.w3.org/1999/xlink" 
	 viewBox="0 0 512.001 512.001" xml:space="preserve">
<polygon style="fill:#0082D1;" points="344.696,109.811 58.263,109.811 31.994,233.226 392.227,233.226 "/>
<polygon style="fill:#31AAEF;" points="212.112,109.811 58.263,109.811 31.994,233.226 212.112,233.226 "/>
<path style="fill:#940009;" d="M490.842,258.309c0-22.376-18.138-40.514-40.514-40.514h-45.605l-43.97-114.169
	c-2.557-6.642-8.94-11.023-16.057-11.023H58.263c-8.123,0-15.139,5.681-16.829,13.624L15.526,227.944v127.45h475.316V258.309z
	 M367.162,216.019H235.986v-89.001h96.899L367.162,216.019z M72.192,127.018h129.38v89.001H53.248L72.192,127.018z"/>
<path style="fill:#FF0029;" d="M251.061,216.019h-15.076v-89.001h15.076V92.604H58.263c-8.123,0-15.139,5.681-16.829,13.624
	L15.526,227.944v127.45h235.535L251.061,216.019L251.061,216.019z M201.572,216.019H53.248l18.944-89.001h129.38V216.019z"/>
<path style="fill:#FFDB38;" d="M490.842,305.146h-30.02c-9.902,0-17.928-8.026-17.928-17.928s8.026-17.928,17.928-17.928h30.02
	V305.146z"/>
<g>
	<path style="fill:#005458;" d="M496.323,357.319h-79.552c-8.659,0-15.678-7.019-15.678-15.678v-21.179
		c0-8.659,7.019-15.678,15.678-15.678h79.552c8.659,0,15.678,7.019,15.678,15.678v21.181
		C512,350.301,504.982,357.319,496.323,357.319z"/>
	<path style="fill:#005458;" d="M62.125,304.784H15.678C7.019,304.784,0,311.804,0,320.462v21.181
		c0,8.659,7.019,15.678,15.678,15.678h46.447V304.784z"/>
</g>
<g>
	
		<line style="fill:none;stroke:#FF784D;stroke-width:20;stroke-linecap:round;stroke-miterlimit:10;" x1="275.31" y1="248.48" x2="311.25" y2="248.48"/>
	
		<line style="fill:none;stroke:#FFA487;stroke-width:20;stroke-linecap:round;stroke-miterlimit:10;" x1="75.71" y1="248.48" x2="111.65" y2="248.48"/>
</g>
<path style="fill:#006E73;" d="M0,320.462v10.59h62.125v-26.268H15.678C7.019,304.784,0,311.804,0,320.462z"/>
<circle style="fill:#003C61;" cx="116.009" cy="355.392" r="64.004"/>
<path style="fill:#005082;" d="M52.006,355.394c0,35.349,28.655,64.004,64.004,64.004V291.391
	C80.661,291.391,52.006,320.046,52.006,355.394z"/>
<circle style="fill:#007BC7;" cx="116.009" cy="355.392" r="29.05"/>
<path style="fill:#4EA4D9;" d="M86.96,355.394c0,16.044,13.006,29.05,29.05,29.05v-58.1C99.966,326.345,86.96,339.351,86.96,355.394
	z"/>
<path style="fill:#006E73;" d="M496.323,304.784h-79.552c-8.659,0-15.678,7.019-15.678,15.678v10.59H512v-10.59
	C512,311.804,504.982,304.784,496.323,304.784z"/>
<circle style="fill:#003C61;" cx="375.259" cy="355.392" r="64.004"/>
<path style="fill:#005082;" d="M311.253,355.394c0,35.349,28.655,64.004,64.004,64.004V291.391
	C339.909,291.391,311.253,320.046,311.253,355.394z"/>
<circle style="fill:#007BC7;" cx="375.259" cy="355.392" r="29.05"/>
<path style="fill:#4EA4D9;" d="M346.207,355.394c0,16.044,13.006,29.05,29.05,29.05v-58.1
	C359.213,326.345,346.207,339.351,346.207,355.394z"/>
</svg>