<svg xmlns="http://www.w3.org/2000/svg" xmlns:xlink="http://www.w3.org/1999/xlink" width="191.481" height="38.942" viewBox="0 0 191.481 38.942"><defs><clipPath id="a"><rect width="127.85" height="19.76" fill="none"/></clipPath><clipPath id="b"><rect width="46.099" height="38.942" fill="#fff"/></clipPath></defs><g transform="translate(-126.869 -39.149)"><g transform="translate(190.5 49.708)"><g transform="translate(0 0)" clip-path="url(#a)"><path d="M8.434,13.821c0-2.991-8.086-.288-8.086-5.771,0-2.508,2.238-3.878,5.1-3.878,2.933,0,5.191,1.177,5.248,4.149l-2.026.252H8.511C8.376,6.758,7.045,6.1,5.346,6.1c-1.6,0-2.625.695-2.625,1.91,0,2.991,8.106.366,8.106,5.616,0,3.2-2.682,4.323-5.326,4.323-2.721,0-5.442-1.022-5.5-4.226L2.085,13.4h.135c.135,2.047,1.64,2.625,3.32,2.625,1.427,0,2.9-.5,2.9-2.2" transform="translate(0 -2.352)" fill="#fff"/><path d="M39.368,15.2c0-1.255-.54-2.046-1.678-2.046-1.64,0-2.432,1.409-2.432,2.9v5.731H33V11.614h2.045V13.2h.077a3.34,3.34,0,0,1,3.185-1.814A2.985,2.985,0,0,1,41.3,13.428a3.391,3.391,0,0,1,3.243-2.045c2.026,0,3.377,1.254,3.377,3.647v6.755H45.659V15.2c0-1.312-.541-2.046-1.717-2.046-1.64,0-2.3,1.274-2.335,2.682v5.944H39.368Z" transform="translate(-18.603 -6.417)" fill="#fff"/><path d="M79.04,15.55h2.122v-.578c0-1.235-.771-1.834-2.007-1.834-.927,0-2.065.309-2.162,1.621h-.116L75.026,14.3c.154-2.433,2.566-2.915,4.245-2.915,2.277,0,4.13,1.042,4.13,3.841v6.562H81.452v-1.6h-.077a3.558,3.558,0,0,1-3.3,1.737c-1.853,0-3.378-1-3.378-3.126,0-2.509,2.181-3.243,4.343-3.243m2.122,1.6H79.213c-1.351,0-2.22.405-2.22,1.525,0,.965.695,1.447,1.66,1.447a2.345,2.345,0,0,0,2.509-2.161Z" transform="translate(-42.109 -6.416)" fill="#fff"/><path d="M109.129,11.647v1.987h-.27c-2.065,0-3.339,1.255-3.339,3.57v4.729h-2.238V11.763h2.18v2.085h.057a3.135,3.135,0,0,1,3.378-2.2Z" transform="translate(-58.223 -6.566)" fill="#fff"/><path d="M123.511,8.92V6.6h2.257V8.92h3.108v1.736h-3.108v5.617c0,.983.367,1.332,1.274,1.332a4.937,4.937,0,0,0,1.467-.27l.193,1.736a14.449,14.449,0,0,1-2.277.251c-1.564,0-2.914-.521-2.914-2.7V10.656h-1.989V8.92Z" transform="translate(-68.505 -3.723)" fill="#fff"/><path d="M157.7,12.495l-.278,4.514H144.461v-.774q.347-.031.813-.094a3.2,3.2,0,0,0,.615-.124.924.924,0,0,0,.5-.387,1.292,1.292,0,0,0,.138-.635V5.066a1.4,1.4,0,0,0-.108-.591,1.007,1.007,0,0,0-.527-.421,3.31,3.31,0,0,0-.739-.223c-.288-.057-.517-.1-.689-.124V2.933h7.728v.774c-.212.019-.462.048-.75.085a4.424,4.424,0,0,0-.748.153.817.817,0,0,0-.516.4,1.419,1.419,0,0,0-.129.62v9.256a4.646,4.646,0,0,0,.089,1.031.89.89,0,0,0,.347.556,1.508,1.508,0,0,0,.719.243,11.521,11.521,0,0,0,1.273.054,12.468,12.468,0,0,0,1.544-.094A1.858,1.858,0,0,0,155.1,15.6a6.988,6.988,0,0,0,1.036-1.423,14.536,14.536,0,0,0,.849-1.682Z" transform="translate(-81.436 -1.653)" fill="#fff"/><path d="M182.084,15.356h-6.27v-.724q.258-.02.506-.05a1.831,1.831,0,0,0,.427-.1.828.828,0,0,0,.447-.342,1.181,1.181,0,0,0,.129-.59V7.777a1.156,1.156,0,0,0-.159-.611,1.31,1.31,0,0,0-.4-.421,2.126,2.126,0,0,0-.541-.229,3.505,3.505,0,0,0-.659-.139V5.654l4.86-.258.15.15v7.876a1.118,1.118,0,0,0,.148.591.918.918,0,0,0,.427.362,3.644,3.644,0,0,0,.436.159,3.03,3.03,0,0,0,.5.1Zm-1.448-13.53a1.677,1.677,0,0,1-.58,1.284,2.058,2.058,0,0,1-2.758,0,1.677,1.677,0,0,1-.58-1.284A1.7,1.7,0,0,1,177.3.535a2.05,2.05,0,0,1,2.763,0,1.7,1.7,0,0,1,.575,1.291" transform="translate(-98.971 0)" fill="#fff"/><path d="M202.816,13.366a2.238,2.238,0,0,0-.868.337,1.985,1.985,0,0,0-.7.833q-.694,1.448-1.364,2.921T198.57,20.31q-.2.418-.452,1.071c-.168.436-.309.834-.421,1.191h-1.824q-1.143-2.648-1.95-4.4t-1.711-3.749a1.615,1.615,0,0,0-.65-.735,2.307,2.307,0,0,0-.9-.327v-.724h6.111v.724a3.066,3.066,0,0,0-.794.148q-.455.139-.455.358a.628.628,0,0,0,.04.178c.026.079.059.169.1.267q.318.754.96,2.171t1.358,2.985q.493-1.081.945-2.117t1.115-2.643a1.616,1.616,0,0,0,.1-.387c.01-.1.016-.165.016-.2a.388.388,0,0,0-.175-.313,1.827,1.827,0,0,0-.412-.233,3.149,3.149,0,0,0-.477-.15c-.153-.032-.278-.055-.378-.068v-.724h4.1Z" transform="translate(-107.482 -7.126)" fill="#fff"/><path d="M224.943,15.356h-6.27v-.724q.259-.02.506-.05a1.832,1.832,0,0,0,.427-.1.828.828,0,0,0,.447-.342,1.181,1.181,0,0,0,.129-.59V7.777a1.156,1.156,0,0,0-.159-.611,1.31,1.31,0,0,0-.4-.421,2.127,2.127,0,0,0-.541-.229,3.506,3.506,0,0,0-.659-.139V5.654l4.86-.258.15.15v7.876a1.118,1.118,0,0,0,.148.591.918.918,0,0,0,.427.362,3.642,3.642,0,0,0,.436.159,3.03,3.03,0,0,0,.5.1Zm-1.448-13.53a1.677,1.677,0,0,1-.58,1.284,2.058,2.058,0,0,1-2.758,0,1.677,1.677,0,0,1-.58-1.284,1.7,1.7,0,0,1,.58-1.291,2.05,2.05,0,0,1,2.763,0,1.7,1.7,0,0,1,.575,1.291" transform="translate(-123.132 0)" fill="#fff"/><path d="M248.371,22.137h-5.963v-.724l.457-.049a1.274,1.274,0,0,0,.406-.1.629.629,0,0,0,.3-.318,1.611,1.611,0,0,0,.09-.615V15.688a2.571,2.571,0,0,0-.373-1.522,1.272,1.272,0,0,0-1.1-.511,2.282,2.282,0,0,0-.741.118,2.737,2.737,0,0,0-.671.348,2.251,2.251,0,0,0-.463.406c-.116.139-.214.262-.294.368v5.326a1.485,1.485,0,0,0,.1.581.687.687,0,0,0,.326.352,1.963,1.963,0,0,0,.4.159,3.025,3.025,0,0,0,.466.1v.724h-6.032v-.724c.167-.013.333-.031.5-.054a2.417,2.417,0,0,0,.431-.094.727.727,0,0,0,.436-.337,1.281,1.281,0,0,0,.12-.6V14.558a1.281,1.281,0,0,0-.158-.6,1.438,1.438,0,0,0-.417-.487,1.638,1.638,0,0,0-.452-.2,3.1,3.1,0,0,0-.6-.11v-.725l4.732-.258.148.15v1.438h.04q.279-.247.675-.6a6.665,6.665,0,0,1,.734-.565,3.549,3.549,0,0,1,.963-.406,4.611,4.611,0,0,1,1.269-.168,3.06,3.06,0,0,1,2.426.917,3.553,3.553,0,0,1,.808,2.435v4.861a1.306,1.306,0,0,0,.109.585.768.768,0,0,0,.406.347,3.375,3.375,0,0,0,.392.14,2.85,2.85,0,0,0,.531.1Z" transform="translate(-132.553 -6.781)" fill="#fff"/><path d="M278.309,13.381h-2.183a3.118,3.118,0,0,1,.581.918,2.681,2.681,0,0,1,.193,1.006,2.418,2.418,0,0,1-.366,1.285,2.986,2.986,0,0,1-.963.977,5.05,5.05,0,0,1-1.418.6,6.783,6.783,0,0,1-1.765.218H270.77a1.381,1.381,0,0,0-.263.284.637.637,0,0,0-.145.375.619.619,0,0,0,.349.61,3.366,3.366,0,0,0,1.259.189q.9.02,1.826.075t1.319.064a3.964,3.964,0,0,1,1.14.234,3.449,3.449,0,0,1,.982.53,2.784,2.784,0,0,1,.754.888,2.53,2.53,0,0,1,.3,1.245,2.909,2.909,0,0,1-.363,1.418,3.235,3.235,0,0,1-1.105,1.151,6.327,6.327,0,0,1-1.88.784,11.3,11.3,0,0,1-2.714.277,9.707,9.707,0,0,1-3.968-.635,2.034,2.034,0,0,1-1.359-1.9,1.517,1.517,0,0,1,.734-1.291,4.34,4.34,0,0,1,2.28-.555v-.118a3.609,3.609,0,0,1-1.422-.821,1.633,1.633,0,0,1-.51-1.188,1.19,1.19,0,0,1,.2-.706,2.039,2.039,0,0,1,.521-.507,2.721,2.721,0,0,1,.675-.323q.4-.135.664-.215v-.11a4.8,4.8,0,0,1-1.969-1.21,2.543,2.543,0,0,1-.63-1.746,2.664,2.664,0,0,1,1.345-2.331,6.138,6.138,0,0,1,3.406-.874,7.323,7.323,0,0,1,1.3.115c.42.076.739.143.957.2h3.849Zm-3,10.227a1.349,1.349,0,0,0-.188-.67,1.412,1.412,0,0,0-.841-.54,9.48,9.48,0,0,0-1.174-.08q-.817-.02-2.242-.021a2.679,2.679,0,0,0-.58.705,1.961,1.961,0,0,0-.233.982,1.322,1.322,0,0,0,.139.546,1.688,1.688,0,0,0,.436.555,2.707,2.707,0,0,0,.772.451,3.789,3.789,0,0,0,1.287.164,3.256,3.256,0,0,0,1.951-.5,1.852,1.852,0,0,0,.672-1.6m-1.656-8.342a3.85,3.85,0,0,0-.369-1.835,1.212,1.212,0,0,0-1.135-.674,1.235,1.235,0,0,0-.676.183,1.34,1.34,0,0,0-.469.532,2.493,2.493,0,0,0-.229.788,7.1,7.1,0,0,0-.059.928,3.682,3.682,0,0,0,.378,1.776,1.175,1.175,0,0,0,1.075.694,1.218,1.218,0,0,0,1.1-.626,3.389,3.389,0,0,0,.384-1.765" transform="translate(-150.459 -6.754)" fill="#fff"/></g></g><g transform="translate(126.869 39.149)"><g clip-path="url(#b)"><path d="M44.62.9a.849.849,0,0,1,.794-.856H61.17a.852.852,0,0,1,.777,1.007.905.905,0,0,1-.908.674H56.9V18.374a.482.482,0,0,1-.866.292,10.251,10.251,0,0,0-2.866-2.525,17.274,17.274,0,0,0-2.758-1.329,1.078,1.078,0,0,1-.684-1.007V1.728H45.557A.9.9,0,0,1,44.62.9" transform="translate(-27.482 -0.029)" fill="#fff"/><path d="M99.541,70.145a.717.717,0,0,0-.734-.74.707.707,0,0,0-.714.546c-1.15,6.712-3.66,9.313-10.5,9.958v.009a.848.848,0,1,0,.058,1.695H98.431a1.087,1.087,0,0,0,1.111-1.062Z" transform="translate(-53.443 -42.748)" fill="#fff"/><path d="M26.7,26.629a11.847,11.847,0,0,1-4.011,9.338,10.873,10.873,0,0,1-1.175.87,12.311,12.311,0,0,1-3,1.391c-.39.124-.794.23-1.213.322a17.235,17.235,0,0,1-3.755.391h-.125a.858.858,0,0,1-.81-.52.843.843,0,0,1,.728-1.156c.067,0,.135,0,.207,0h0a.007.007,0,0,1,.01,0h0c4.829,0,8.464-2.334,9.129-5.963a6.773,6.773,0,0,0,.111-1.22,8.083,8.083,0,0,0-.111-1.363c-.694-3.983-4.637-5.019-11.127-6.631-.274-.069-.549-.138-.813-.212C4.562,20.238.72,18.064.72,11.18.72,5.567,4.789,0,12.863,0c.193,0,.38,0,.563.009a.868.868,0,0,1,.886.847.867.867,0,0,1-.886.843c-.275-.014-.558-.023-.847-.023-4.969,0-7.791,2.647-7.791,6.318,0,2.823,1.849,4.383,4.637,5.516a38.775,38.775,0,0,0,4.68,1.455c3.086.778,6.216,1.6,8.585,3.251,2.4,1.671,4.011,4.2,4.011,8.413" transform="translate(-0.443)" fill="#fff"/><path d="M5.45,69.423a2.668,2.668,0,0,0-2.725-2.606A2.667,2.667,0,0,0,0,69.423c0,.048,0,.095.007.142a1.738,1.738,0,0,0,.028.428c.358,2.366,1.3,5.024,3.532,6.185a.239.239,0,0,0,.274-.383A4.243,4.243,0,0,1,3,74.195,2.194,2.194,0,0,1,4.085,71.68,2.583,2.583,0,0,0,5.45,69.423" transform="translate(0 -41.154)" fill="#fff"/></g></g></g></svg>